<?xml version="1.0" encoding="UTF-8"?>
<svg id="Layer_1" xmlns="http://www.w3.org/2000/svg" version="1.1" viewBox="0 0 812.54 999.45">
  <!-- Generator: Adobe Illustrator 30.6.0, SVG Export Plug-In . SVG Version: 2.1.4 Build 109)  -->
  <defs>
    <style>
      .st0 {
        fill: #cba7fc;
      }

      .st1 {
        fill: #623a9e;
      }

      .st2 {
        fill: #faf7fe;
      }

      .st3 {
        fill: #fed866;
      }

      .st4 {
        fill: #fde29e;
      }

      .st5 {
        fill: #f6f1fe;
      }

      .st6 {
        fill: #f7f2fe;
      }

      .st7 {
        fill: #fdd970;
      }

      .st8 {
        fill: #fddea1;
      }

      .st9 {
        fill: #fddf9a;
      }

      .st10 {
        fill: #fed86a;
      }

      .st11 {
        fill: #f8f1fd;
      }

      .st12 {
        fill: #32166b;
      }

      .st13 {
        fill: #61399c;
      }

      .st14 {
        fill: #100f16;
      }

      .st15 {
        fill: #f6effd;
      }

      .st16 {
        fill: #32166c;
      }

      .st17 {
        fill: #100f17;
      }

      .st18 {
        fill: #34176d;
      }

      .st19 {
        fill: #f3ecfe;
      }

      .st20 {
        fill: #fcbfc6;
      }

      .st21 {
        fill: #60399c;
      }

      .st22 {
        fill: #fbf8fe;
      }

      .st23 {
        fill: #fcfbfe;
      }

      .st24 {
        fill: #5e379a;
      }

      .st25 {
        fill: #f8f3fe;
      }

      .st26 {
        fill: #61399d;
      }

      .st27 {
        fill: #fefdfe;
      }
    </style>
  </defs>
  <path class="st0" d="M812.46,750.29c-.01-.91-.02-1.79-.02-2.67-.03-5.85-.32-11.59-.95-17.4-.09-.75-.17-1.48-.26-2.21-1.7-15.06-4.75-29.72-8.26-44.45-9.12-38.15-13.7-76.01-15.13-115.18-.25-6.73-.51-13.45-.77-20.17q-.08-1.85-.09-2.21c-.76-19.17-1.76-38.36-4.09-57.41-.16-1.22-.31-2.4-.47-3.58-6.38-49.53-18.1-99.92-40.97-144.65-.42-.8-.82-1.58-1.22-2.35-9.31-18.16-19.6-36.06-32.93-51.6-1.45-1.68-2.85-3.4-4.23-5.15-4.6-5.86-9.49-10.93-15.09-15.85-1.76-1.54-3.5-3.09-5.21-4.68-6.03-5.57-12.35-10.68-18.95-15.56l-1.59-1.16c-6.37-4.72-13.04-8.68-20.01-12.44-1-.53-1.96-1.05-2.92-1.56-.9-.49-1.78-.96-2.65-1.44-.94-.49-1.85-.96-2.76-1.44-2.99-1.56-5.87-2.91-9.14-3.79-5.68-1.38-11.18-2.86-16.37-5.63q-5.49-4.35-8-21.96c-.31-2.18-.65-4.36-1.03-6.53-1.16-6.39-2.21-12.78-3.12-19.21,5.01-1.95,10.02-3.67,15.18-5.19.92-.27,1.81-.53,2.71-.8,2.04-.6,4.08-1.2,6.11-1.8,4.56-1.34,9.12-2.68,13.67-4.02,4.49-1.33,8.98-2.66,13.46-3.98l2.07-.61c3.74-1.11,7.48-2.21,11.22-3.31,9.57-2.83,19.14-5.65,28.71-8.49,4.37-1.3,8.75-2.6,13.13-3.89,4.23-1.24,8.46-2.49,12.68-3.75,1.58-.46,3.15-.93,4.73-1.4,2.22-.65,4.43-1.3,6.65-1.96.69-.2,1.35-.4,2.02-.6,5.69-1.69,9.05-3.32,12.91-7.83,2.21-4.25,2.33-7.66,1.75-12.37-1.84-3.7-3.93-6.41-7.58-8.43-.98-.38-1.93-.74-2.89-1.11-5.19-2.01-10.42-3.9-15.68-5.72l-3.26-1.11c-3.68-1.27-7.35-2.53-11.02-3.78-2.45-.84-4.9-1.68-7.35-2.53-6.26-2.15-12.52-4.29-18.78-6.44-4.34-1.48-8.68-2.96-13.02-4.45-26.1-8.96-52.25-17.76-78.43-26.48-32.79-10.94-65.59-21.83-98.41-32.68-3.54-1.17-7.09-2.34-10.64-3.51-4.17-1.39-8.34-2.77-12.51-4.14-1.54-.51-3.07-1.01-4.61-1.52h0c-29.29-9.72-49.83-11.08-79.48-2.01-.8.25-1.57.48-2.34.72q-23.97,7.35-82.52,26.72c-4.45,1.47-8.91,2.94-13.37,4.41-20.05,6.6-40.01,13.46-59.92,20.47-6,2.12-12,4.23-18.01,6.33-15.12,5.27-30.23,10.54-45.3,15.95-7.08,2.54-14.16,5.06-21.26,7.54-4.87,1.69-9.75,3.39-14.62,5.09-2.5.87-5,1.74-7.5,2.62-3.63,1.25-7.26,2.51-10.89,3.78l-3.39,1.18c-1.1.38-2.17.75-3.25,1.12-1.02.36-2.01.7-3,1.05-6.22,2.16-9.85,5.02-12.97,10.93-.74,4.11-.23,7.32,1.13,11.25,3.64,5.34,8.71,7.25,14.65,9.18.87.28,1.72.54,2.56.8,2.73.88,5.47,1.76,8.21,2.62,1.9.6,3.8,1.21,5.69,1.81,4.4,1.41,8.79,2.82,13.19,4.21,1.21.38,2.39.76,3.57,1.13q0,2-.74,4.26c-.35.97-.7,1.91-1.04,2.86q-.99,2.7-1.19,3.23c-.44,1.2-.87,2.36-1.3,3.52-1.6,4.4-3.21,8.79-4.82,13.18-1.64,4.45-3.28,8.91-4.91,13.37-.45,1.24-.89,2.44-1.33,3.64-2.59,7.02-5.08,14.02-7.17,21.21q-.42,1.44-.5,1.73l-2.2-.03c-2.61-.03-5.19-.07-7.8.03-9.83,1.9-18.34,7.58-24.75,15.12-6.38,8.72-8.19,18.25-7.25,28.88.38,1.66.72,3.32,1,5-.21,3.33-.81,4.76-2.89,7.4-25.9,26.51-48.76,61.89-58.57,97.83-.23.88-.44,1.73-.66,2.58-1.69,6.6-3.72,14.79-.99,21.31,7.21,12.21,22.25,21.44,35.49,25.88,1.23.34,2.43.67,3.62,1-13.33,46.48-16.47,95.64-18.18,143.72-1.43,40.4-5.41,79.21-14.1,118.75C3.46,708.99-.18,736.35,0,766.63c.01.92.01,1.82.02,2.72.03,4.84.15,9.62.67,14.44,5.73,46.95,24.9,89.46,62.76,119.12.95.71,1.86,1.41,2.77,2.1,11.42,8.9,24.11,17.07,37.79,22,5.18,1.7,10.39,3.27,15.3,5.69q4.15,2.83,7.49,13.2c.23.71.45,1.4.67,2.09,6.46,17.28,25,30.89,41.11,38.43q3.04,1.33,3.64,1.59c17.18,7.59,34.18,10.32,52.89,10.43.8,0,1.58,0,2.36.01,24.4.2,50.72-4.3,70.38-19.88.54-.49,1.07-.96,1.6-1.43,3.24-2.07,6.81-2.2,10.57-1.93,1,.16,1.97.32,2.95.47,1.16.17,2.28.34,3.41.51,28.16,4.3,56.36,6.05,84.84,6.07h3.44c18.82-.01,37.37-.71,56.09-2.66,2.49-.27,4.97-.53,7.46-.79q2.08-.21,2.49-.25c1.64-.17,3.29-.35,4.93-.52,4.01-.4,8.02-.81,12.02-1.38.82-.13,1.61-.25,2.4-.37l4.58-.66c4.15-.72,6.72-1.19,10.42,1.23q2.17,2.15,4.58,3.86c27.59,18.11,64.74,22.3,96.79,15.94.96-.22,1.88-.44,2.8-.65,18.89-4.34,37.68-11.34,51.96-24.92.69-.7,1.37-1.39,2.04-2.08,6.26-6.36,11.88-13.05,16-21,.73-3.18,1.44-6.13,2.64-9.17q3.34-4.01,16.31-8.34c12.39-4.13,23.83-9.83,35.05-16.49,39.23-24.95,64.91-63.27,75.4-108.31.21-.92.4-1.8.6-2.69q3.46-15.39,3.23-52.72ZM213.4,196.57c-.32,1.75-.62,3.51-.9,5.27q-2.34,14.59-6.85,18.28c-3.12,1.29-6.14,2.11-9.42,2.89-1.87.78-3.71,1.6-5.54,2.47-.9.42-1.8.84-2.73,1.27-15.33,7.26-29.99,15.37-42.7,26.71q-2.03,1.55-5.03,1.55.02-.33.14-1.98c.44-11.21-2.58-20.66-10.14-29.02-.58-.42-1.15-.84-1.75-1.28q-1.25-1.72-1.24-4.6c1.15-5.89,3.62-11.44,5.8-17,1-2.57,1.99-5.14,2.98-7.72.26-.67.52-1.34.78-2.03,3.15-8.19,6.13-16.43,9.12-24.68.27-.74.53-1.48.81-2.24l4.5-12.45c6.85.63,13.08,2.83,19.57,5,1.21.4,2.41.79,3.64,1.2,3.18,1.05,6.36,2.1,9.53,3.15,4.48,1.49,8.97,2.97,13.45,4.45,2.39.79,4.77,1.58,7.15,2.37,1.08.36,2.16.71,3.27,1.08.95.31,1.89.63,2.87.95,2.16.69,4.31,1.28,6.52,1.8-.98,8.25-2.3,16.4-3.83,24.56Z"/>
  <path class="st20" d="M173.23,490.01c.48,1.03.97,2.05,1.47,3.11,4.13,8.6,8.48,16.46,14.53,23.89q.34.43,2.08,2.58c9.11,10.7,22.37,20.9,35.92,25.42-.38,6.92-2.5,12.05-6,18-.36.76-.71,1.51-1.08,2.29-3.25,2.89-7.13,2-11.3,1.77q-10.71-.54-14.62,2.94c-1.48,1.94-2.87,3.94-4.25,5.96q-6.58,9.38-12.56,11.2c-4.23.03-8.04-.42-12.19-1.16-1.42-.18-2.85-.35-4.27-.52-13.62-1.79-26.48-6.02-36.73-15.48-.87-.78-1.73-1.57-2.62-2.38-.79-.86-1.57-1.73-2.38-2.62-.57-.61-1.13-1.22-1.71-1.85-7.15-8.31-10.12-18.26-9.67-29.18,1.57-12.37,7.68-22.28,17.13-30.28,14.39-10.68,30.53-14.7,48.25-13.69M634.23,490.01c18.78-.96,36.94,4.04,51.56,16.25,7.57,7.38,12.78,16.73,13.78,27.33.13,12.2-2.21,21.21-10.34,30.42-.55.66-1.1,1.31-1.67,1.99-11.64,12.81-28.6,18.17-45.33,20.01q-.6.12-3.66.75c-4.1.54-7.54,1-11.34-.75-5.15-4.58-8.94-10.45-12.61-16.23q-1.39-1.77-4.39-2.77c-1.57.01-3.14.08-4.71.18l-2.77.12c-1.93.09-3.84.21-5.76.35-2.79.1-5.07.07-7.76-.65-2.46-2.33-3.71-4.89-5-8-.45-1.02-.9-2.03-1.36-3.08-.32-.9-.63-1.8-.95-2.73-.33-.92-.65-1.83-.99-2.77q-.7-2.42-.7-5.42c.93-.46,1.86-.92,2.82-1.4,23.72-12.02,40.12-29.51,51.18-53.6"/>
  <path class="st26" d="M228.86,567.19c.77.06,1.55.13,2.34.2,50.22,4.28,104.42,12.02,149.04,36.61.69.38,1.38.76,2.1,1.14,2.16,1.18,4.31,2.36,6.46,3.55q.32.18,1.95,1.08c4.38,2.48,8.43,5.25,12.49,8.23.6-.44,1.2-.87,1.81-1.32,50.11-35.91,142.73-57.98,205.19-50.68,4.46,2,6.75,4.92,9.62,8.81.87,1.17,1.73,2.33,2.6,3.49.45.6.9,1.2,1.36,1.83,2.88,3.81,5.87,7.54,8.84,11.29,1.95,2.48,3.82,4.95,5.58,7.58,1.96,0,3.93,0,5.9-.07,3.33.11,5.37,1.21,8.1,3.07,4.75,5.38,4.6,10.33,4.6,17.31q.01.54.05,3.27c.05,3.43.07,6.86.09,10.3l.09,7c.08,5.71.13,11.41.17,17.12.93.19,1.86.38,2.82.58q.62.12,3.76.77.61.13,3.71.76c7.79,1.87,15.19,3.92,19.71,10.89.71,3.08.57,5.9,0,9-1.8,2.87-2.99,4.49-6,6-6.38.59-11.19-.84-17.17-3.02-15.52-5.33-34.47-2.73-48.96,4.15-6.58,3.44-11.71,7.57-16.87,12.87-.64.6-1.27,1.21-1.93,1.83-11.11,11.33-14.5,26.88-14.44,42.16.3,15.46,6.64,28.76,17.22,39.99,13.75,12.95,31.66,18.75,50.35,18.31,17.63-1.33,32.33-7.67,46.04-18.66,3.54-2.68,6.2-3.8,10.76-3.63,3.74,1.98,5.64,3.47,8,7q.37,2.05.43,4.31l.12,2.24c-1.38,6.05-7.09,9.99-11.93,13.39q-.3.21-1.84,1.3c-13.56,9.28-28.7,13.98-44.78,16.76-.02,1.11-.03,2.22-.05,3.36-.06,4.15-.13,8.29-.22,12.44-.03,1.79-.06,3.58-.08,5.36-.04,2.59-.09,5.17-.14,7.75-.01.79-.02,1.58-.02,2.39-.18,6.77-1.36,12.47-6.18,17.51-5.88,3.89-12.28,5.6-19.14,7.02-.71.15-1.42.3-2.15.45-1.48.32-2.97.63-4.45.94-2.27.47-4.53.96-6.8,1.44-1.45.31-2.9.61-4.35.92-.67.14-1.34.28-2.03.43-7.09,1.46-10.79,1-17.39-2.01-12.84-4.06-26.52.53-38.12,6.01q-2.88,1.99-4.09,3.78c-5.5,8.12-14.23,8.92-23.2,10.76-1.75.39-3.5.77-5.24,1.16-4.65,1.02-9.31,2.01-13.97,2.99-4.81,1.02-9.61,2.08-14.41,3.13-5.72,1.25-11.43,2.49-17.15,3.72-10.45,2.26-20.88,4.59-31.28,7.1-1.09.26-2.19.52-3.31.8-3.92.94-7.83,1.89-11.74,2.86-24.64,6.13-43.93,3.22-68.42-2.54l-6.69-1.56c-5.86-1.37-11.71-2.75-17.57-4.12-4.71-1.11-9.43-2.21-14.15-3.31l-23.46-5.49c-1.02-.24-2.03-.48-3.08-.72-2.01-.47-4.02-.95-6.02-1.43-5.3-1.27-10.61-2.46-15.94-3.55l-3.43-.73c-2.15-.47-4.31-.9-6.48-1.31-6.51-1.44-9.87-3.36-13.88-8.74-4.65-6.13-15.1-8.61-22.37-9.81-9.61-.74-17.7.13-26.63,3.64-3.59.55-6.87-.36-10.36-1.15-.77-.17-1.55-.34-2.35-.51-1.63-.36-3.27-.73-4.91-1.1-2.48-.56-4.96-1.1-7.45-1.63-1.6-.36-3.19-.71-4.79-1.07-.73-.16-1.47-.32-2.22-.48-6.19-1.43-13.56-3.51-17.23-9.07-.38-.55-.76-1.09-1.15-1.65-2.4-5.2-2.05-11.05-2.01-16.66v-2.46l.03-7.73c.01-1.76.01-3.51.02-5.27.01-4.28.02-8.57.05-12.86-.7-.04-1.39-.08-2.1-.13-6.23-.46-11.82-1.38-17.72-3.43l-2.32-.8c-13.11-4.68-26.56-12.22-34.86-23.64-.97-3.3-1.19-5.29-.32-8.62,1.53-2.77,2.78-4.46,5.32-6.38,3.9-1.08,6.16-1.29,10,.07,2.31,1.49,4.1,2.87,6.12,4.68,14.92,13.1,34.48,17.41,53.88,16.25,15.95-1.73,31.84-9.65,42.42-21.78,11.96-15.19,15.08-30.29,13.58-49.22-.86-4.6-2.18-8.7-4-13-.33-.85-.66-1.7-1-2.58-6.49-15.04-20.29-24.49-34.63-31.16-7.47-2.79-14.63-3.65-22.56-3.63h-2.78c-9.54.17-17.99,2.1-26.47,6.62-4.01,1.97-6.17,2.49-10.56,1.75-2.97-1.81-5.43-3.84-7-7-.38-4.99-.28-8.11,3-12,7.19-5.87,16.74-9.12,25.71-11.07.8-.17,1.61-.35,2.44-.53.61-.13,1.22-.26,1.85-.4,0-.56.01-1.12.01-1.7.07-5.85.15-11.71.25-17.57.03-2.18.06-4.36.08-6.55.04-3.14.09-6.29.14-9.43q.01-.49.02-2.94c.12-5.68.75-9.79,3.5-14.81,2.26-2.1,4.25-3.62,7-5,.73.13,1.46.26,2.21.4,3.31.51,5.54.48,8.79-.4,3.76-3.53,6.52-7.59,9.45-11.83,2.81-3.95,5.9-7.67,8.98-11.42.59-.74,1.19-1.47,1.79-2.24q.29-.34,1.71-2.09c.49-.61.99-1.22,1.5-1.85,7.81-7.82,24.98-3.25,35.19-2.38"/>
  <path class="st18" d="M326.54,374.94c1.57,1.34,3.14,2.7,4.69,4.06.83.69,1.66,1.38,2.51,2.08,20.23,17.23,28.81,40.63,33.49,65.92q.51-.27,3.08-1.64c17.34-9.1,33.91-12.34,52.99-6.78,6.47,2.15,12.22,5.75,17.93,9.42-.03-1.15-.07-2.31-.1-3.5.01-4.29.66-8.33,1.66-12.5.18-.73.35-1.46.53-2.21,4.47-17.45,13.48-31.83,25.91-44.79.66-.71,1.31-1.42,1.99-2.15,16.8-17.61,42.33-27.44,66.37-28.18,26.41-.4,51.91,8.43,71.13,26.82,1.52,1.49,3.02,3,4.51,4.51.83.84,1.67,1.67,2.52,2.53,13.66,14.39,23.58,34.49,24.48,54.47,1.26-.33,2.51-.66,3.81-1,12.48-2.71,24.33-.55,35.45,5.62,2.05,1.63,2.84,2.93,3.74,5.38-.19,3.1-.52,5.24-2.19,7.88-2.82,1.75-4.51,1.55-7.81,1.12-1.37-.61-2.72-1.26-4.07-1.94-8.9-4.21-18.62-3.6-27.93-1.06q-.02.38-.08,2.32c-1.46,27.55-14.95,49.67-34.67,68.31-19.49,17.03-45.62,25.52-71.36,24.27-22.09-1.63-42.97-9.55-59.89-23.9-.81-.65-1.62-1.31-2.45-1.99-7.81-6.6-13.74-14.65-19.55-23.01l-3,1c-.39,1.32-.71,2.66-1,4-8.05,14.98-24.75,30.55-41,36-9.41,1.7-16.82-2.47-24.41-7.64-2.27-1.71-4.44-3.51-6.59-5.36-.81-.67-1.63-1.33-2.46-2.02-7.98-6.8-15.62-14.7-18.54-24.98h-4c-1.77,2.14-3.25,4.19-4.75,6.5-14.21,20.8-37.21,34.75-61.82,39.82-1.8.26-3.62.49-5.43.68-1.19.14-2.37.27-3.6.4-27.08,2.38-53.22-5.2-74.4-22.4-.78-.62-1.56-1.25-2.36-1.89-18.44-15.59-29.53-37.57-33.64-61.11-.25-3.1-.23-5.89,0-9q-19.75-3.18-29.19,1.63c-3.52,1.72-5.94,1.81-9.81,1.37-2.42-1.53-2.89-2.69-3.88-5.37-.17-3.54.68-4.86,2.88-7.63,8.31-6.73,19.5-8.8,30-8,3.36.56,6.68,1.24,10,2,.14-.98.29-1.96.44-2.97,4.27-26.42,18.38-50.06,39.99-66.03,11.28-8.02,24.14-13.69,37.57-17,.9-.22,1.8-.45,2.73-.68,27.47-5.66,57.53,1.27,79.58,18.62"/>
  <path class="st12" d="M812.46,750.29c-.01-.91-.02-1.79-.02-2.67-.03-5.85-.32-11.59-.95-17.4-.09-.75-.17-1.48-.26-2.21-1.7-15.06-4.75-29.72-8.26-44.45-9.12-38.15-13.7-76.01-15.13-115.18-.25-6.73-.51-13.45-.77-20.17q-.08-1.85-.09-2.21c-.76-19.17-1.76-38.36-4.09-57.41-.16-1.22-.31-2.4-.47-3.58-6.38-49.53-18.1-99.92-40.97-144.65-.42-.8-.82-1.58-1.22-2.35-9.31-18.16-19.6-36.06-32.93-51.6-1.45-1.68-2.85-3.4-4.23-5.15-4.6-5.86-9.49-10.93-15.09-15.85-1.76-1.54-3.5-3.09-5.21-4.68-6.03-5.57-12.35-10.68-18.95-15.56l-1.59-1.16c-6.37-4.72-13.04-8.68-20.01-12.44-1-.53-1.96-1.05-2.92-1.56-.9-.49-1.78-.96-2.65-1.44-.94-.49-1.85-.96-2.76-1.44-2.99-1.56-5.87-2.91-9.14-3.79-5.68-1.38-11.18-2.86-16.37-5.63q-5.49-4.35-8-21.96c-.31-2.18-.65-4.36-1.03-6.53-1.16-6.39-2.21-12.78-3.12-19.21,5.01-1.95,10.02-3.67,15.18-5.19.92-.27,1.81-.53,2.71-.8,2.04-.6,4.08-1.2,6.11-1.8,4.56-1.34,9.12-2.68,13.67-4.02,4.49-1.33,8.98-2.66,13.46-3.98l2.07-.61c3.74-1.11,7.48-2.21,11.22-3.31,9.57-2.83,19.14-5.65,28.71-8.49,4.37-1.3,8.75-2.6,13.13-3.89,4.23-1.24,8.46-2.49,12.68-3.75,1.58-.46,3.15-.93,4.73-1.4,2.22-.65,4.43-1.3,6.65-1.96.69-.2,1.35-.4,2.02-.6,5.69-1.69,9.05-3.32,12.91-7.83,2.21-4.25,2.33-7.66,1.75-12.37-1.84-3.7-3.93-6.41-7.58-8.43-.98-.38-1.93-.74-2.89-1.11-5.19-2.01-10.42-3.9-15.68-5.72l-3.26-1.11c-3.68-1.27-7.35-2.53-11.02-3.78-2.45-.84-4.9-1.68-7.35-2.53-6.26-2.15-12.52-4.29-18.78-6.44-4.34-1.48-8.68-2.96-13.02-4.45-26.1-8.96-52.25-17.76-78.43-26.48-32.79-10.94-65.59-21.83-98.41-32.68-3.54-1.17-7.09-2.34-10.64-3.51-4.17-1.39-8.34-2.77-12.51-4.14-1.54-.51-3.07-1.01-4.61-1.52h0c-29.29-9.72-49.83-11.08-79.48-2.01-.8.25-1.57.48-2.34.72q-23.97,7.35-82.52,26.72c-4.45,1.47-8.91,2.94-13.37,4.41-20.05,6.6-40.01,13.46-59.92,20.47-6,2.12-12,4.23-18.01,6.33-15.12,5.27-30.23,10.54-45.3,15.95-7.08,2.54-14.16,5.06-21.26,7.54-4.87,1.69-9.75,3.39-14.62,5.09-2.5.87-5,1.74-7.5,2.62-3.63,1.25-7.26,2.51-10.89,3.78l-3.39,1.18c-1.1.38-2.17.75-3.25,1.12-1.02.36-2.01.7-3,1.05-6.22,2.16-9.85,5.02-12.97,10.93-.74,4.11-.23,7.32,1.13,11.25,3.64,5.34,8.71,7.25,14.65,9.18.87.28,1.72.54,2.56.8,2.73.88,5.47,1.76,8.21,2.62,1.9.6,3.8,1.21,5.69,1.81,4.4,1.41,8.79,2.82,13.19,4.21,1.21.38,2.39.76,3.57,1.13q0,2-.74,4.26c-.35.97-.7,1.91-1.04,2.86q-.99,2.7-1.19,3.23c-.44,1.2-.87,2.36-1.3,3.52-1.6,4.4-3.21,8.79-4.82,13.18-1.64,4.45-3.28,8.91-4.91,13.37-.45,1.24-.89,2.44-1.33,3.64-2.59,7.02-5.08,14.02-7.17,21.21q-.42,1.44-.5,1.73l-2.2-.03c-2.61-.03-5.19-.07-7.8.03-9.83,1.9-18.34,7.58-24.75,15.12-6.38,8.72-8.19,18.25-7.25,28.88.38,1.66.72,3.32,1,5-.21,3.33-.81,4.76-2.89,7.4-25.9,26.51-48.76,61.89-58.57,97.83-.23.88-.44,1.73-.66,2.58-1.69,6.6-3.72,14.79-.99,21.31,7.21,12.21,22.25,21.44,35.49,25.88,1.23.34,2.43.67,3.62,1-13.33,46.48-16.47,95.64-18.18,143.72-1.43,40.4-5.41,79.21-14.1,118.75C3.46,708.99-.18,736.35,0,766.63c.01.92.01,1.82.02,2.72.03,4.84.15,9.62.67,14.44,5.73,46.95,24.9,89.46,62.76,119.12.95.71,1.86,1.41,2.77,2.1,11.42,8.9,24.11,17.07,37.79,22,5.18,1.7,10.39,3.27,15.3,5.69q4.15,2.83,7.49,13.2c.23.71.45,1.4.67,2.09,6.46,17.28,25,30.89,41.11,38.43q3.04,1.33,3.64,1.59c17.18,7.59,34.18,10.32,52.89,10.43.8,0,1.58,0,2.36.01,24.4.2,50.72-4.3,70.38-19.88.54-.49,1.07-.96,1.6-1.43,3.24-2.07,6.81-2.2,10.57-1.93,1,.16,1.97.32,2.95.47,1.16.17,2.28.34,3.41.51,28.16,4.3,56.36,6.05,84.84,6.07h3.44c18.82-.01,37.37-.71,56.09-2.66,2.49-.27,4.97-.53,7.46-.79q2.08-.21,2.49-.25c1.64-.17,3.29-.35,4.93-.52,4.01-.4,8.02-.81,12.02-1.38.82-.13,1.61-.25,2.4-.37l4.58-.66c4.15-.72,6.72-1.19,10.42,1.23q2.17,2.15,4.58,3.86c27.59,18.11,64.74,22.3,96.79,15.94.96-.22,1.88-.44,2.8-.65,18.89-4.34,37.68-11.34,51.96-24.92.69-.7,1.37-1.39,2.04-2.08,6.26-6.36,11.88-13.05,16-21,.73-3.18,1.44-6.13,2.64-9.17q3.34-4.01,16.31-8.34c12.39-4.13,23.83-9.83,35.05-16.49,39.23-24.95,64.91-63.27,75.4-108.31.21-.92.4-1.8.6-2.69q3.46-15.39,3.23-52.72ZM127.24,218.13c1.15-5.89,3.62-11.44,5.8-17,1-2.57,1.99-5.14,2.98-7.72.26-.67.52-1.34.78-2.03,3.15-8.19,6.13-16.43,9.12-24.68.27-.74.53-1.48.81-2.24l4.5-12.45c6.85.63,13.08,2.83,19.57,5,1.21.4,2.41.79,3.64,1.2,3.18,1.05,6.36,2.1,9.53,3.15,4.48,1.49,8.97,2.97,13.45,4.45,2.39.79,4.77,1.58,7.15,2.37,1.08.36,2.16.71,3.27,1.08.95.31,1.89.63,2.87.95,2.16.69,4.31,1.28,6.52,1.8-.98,8.25-2.3,16.4-3.83,24.56-.32,1.75-.62,3.51-.9,5.27q-2.34,14.59-6.85,18.28c-3.12,1.29-6.14,2.11-9.42,2.89-1.87.78-3.71,1.6-5.54,2.47-.9.42-1.8.84-2.73,1.27-15.33,7.26-29.99,15.37-42.7,26.71q-2.03,1.55-5.03,1.55.02-.33.14-1.98c.44-11.21-2.58-20.66-10.14-29.02-.58-.42-1.15-.84-1.75-1.28q-1.25-1.72-1.24-4.6ZM789.64,789.91c-.14.72-.27,1.41-.41,2.1-5.39,28.66-16.11,58.87-38.07,79.27-.66.59-1.29,1.16-1.93,1.73-19.61,18.63-42.03,33.6-68.37,40.81l-4.02,1.02c-4.29,1.39-8.4,2.94-10.64,7.07-2.47,10.72-7.27,20.26-14.51,28.54-18.92,19.68-44.03,25.31-70.4,26.78-21.45.52-47.12-2.79-63.37-17.91-1.54-1.46-3.1-2.9-4.69-4.31-3.97-2.63-7.09-3.13-11.79-2.37-61.46,10.29-124.95,10.78-186.53,1.26-.77-.12-1.51-.24-2.25-.35-1.41-.22-2.83-.43-4.24-.65q-3.71-.59-7.19-.89c-4.08.34-6.2.27-9.25,3.06-.89,1-1.81,1.98-2.75,2.94-18.64,15.46-43.03,19.54-66.66,19.12l-3.34-.12c-14.8-.54-30.84-4.18-44-11-15.46-8.55-27.99-20.51-33.18-37.81-.56-2.08-1.16-4.15-1.82-6.19-1.51-3.34-2.31-4.68-5.65-6.27-21.15-6.34-41.37-16.54-58.57-30.45-.94-.77-1.86-1.53-2.78-2.28-7.12-5.59-12.83-12.27-18.56-19.25q-1.2-1.46-1.44-1.75c-23.57-28.6-32.2-65.51-32.25-101.9v-2.35c.01-8.18,0-16.35.96-24.48.1-.77.2-1.52.29-2.27,1.76-14.96,4.72-29.58,7.97-44.28,8.59-38.77,13.35-76.35,14.73-116.07l.12-3.53.12-3.56c1.31-37.85,4.03-75.22,11.16-112.47.16-.82.31-1.61.47-2.4,1.67-8.74,3.32-17.33,6.43-25.69,10.4.17,20.69.09,30.19-4.56q13.48-11.68,23.57-87.02c.57-4.32,1.14-8.65,1.72-12.97.17-1.2.33-2.35.5-3.51.64-4.6,1.49-7.71,4.48-11.27l1.54-1.67c1.29-1.48,2.58-2.96,3.88-4.44,2.65-2.92,5.25-5.87,7.81-8.87,1.8-2.13,3.52-3.86,5.7-5.61q2.61-2.08,5.09-4.42c21.22-20.36,51.43-39.84,81.04-44.08,1.5-.19,2.99-.39,4.48-.58h0c25.08-3.81,52.55-5.69,77.73-1.4.78.13,1.52.27,2.27.4,27.45,4.67,54.87,11.9,78.8,26.62,4.29,2.68,8.57,5.33,13.2,7.38,4.36.83,8.21.17,11.96-2.28,40.73-28,92.74-35.59,141.04-33.72,48.45,3.07,91.84,23.4,124.27,59.91l2.73,3.09c26.66,29.08,44.13,66.2,56.19,103.45.28.87.55,1.71.81,2.55,17.08,53.55,21.99,108.17,24.25,164.03.12,3.12.25,6.25.38,9.37.16,4.07.33,8.14.48,12.21.62,16.6,1.7,33.15,4.08,49.6.15.95.3,1.87.44,2.79q2.12,13.71,8.87,44.2c7.75,34.99,15.42,71.77,8.91,107.7Z"/>
  <path class="st20" d="M192.23,494.01c11.8.91,20.76,10.25,28.38,18.5,3.2,3.89,6.62,9.33,6.62,14.5-4.91-1.34-8.5-3.55-12.44-6.69l-1.73-1.36c-8.69-6.94-16.03-14.76-20.83-24.95M614.23,495.01c-8.27,13.42-19.33,25.63-34,32,3.42-12.7,10.9-22.12,22.21-28.93q8.16-4.28,11.79-3.07"/>
  <path class="st16" d="M228.86,567.19c.77.06,1.55.13,2.34.2,50.22,4.28,104.42,12.02,149.04,36.61.69.38,1.38.76,2.1,1.14,2.16,1.18,4.31,2.36,6.46,3.55q.32.18,1.95,1.08c4.38,2.48,8.43,5.25,12.49,8.23.6-.44,1.2-.87,1.81-1.32,50.11-35.91,142.73-57.98,205.19-50.68,4.46,2,6.75,4.92,9.62,8.81.87,1.17,1.73,2.33,2.6,3.49.45.6.9,1.2,1.36,1.83,2.88,3.81,5.87,7.54,8.84,11.29,1.95,2.48,3.82,4.95,5.58,7.58,1.96,0,3.93,0,5.9-.07,3.33.11,5.37,1.21,8.1,3.07,4.75,5.38,4.6,10.33,4.6,17.31q.01.54.05,3.27c.05,3.43.07,6.86.09,10.3l.09,7c.08,5.71.13,11.41.17,17.12.93.19,1.86.38,2.82.58q.62.12,3.76.77.61.13,3.71.76c7.79,1.87,15.19,3.92,19.71,10.89.71,3.08.57,5.9,0,9-1.8,2.87-2.99,4.49-6,6-6.38.59-11.19-.84-17.17-3.02-15.52-5.33-34.47-2.73-48.96,4.15-6.58,3.44-11.71,7.57-16.87,12.87-.64.6-1.27,1.21-1.93,1.83-11.11,11.33-14.5,26.88-14.44,42.16.3,15.46,6.64,28.76,17.22,39.99,13.75,12.95,31.66,18.75,50.35,18.31,17.63-1.33,32.33-7.67,46.04-18.66,3.54-2.68,6.2-3.8,10.76-3.63,3.74,1.98,5.64,3.47,8,7q.37,2.05.43,4.31l.12,2.24c-1.38,6.05-7.09,9.99-11.93,13.39q-.3.21-1.84,1.3c-13.56,9.28-28.7,13.98-44.78,16.76-.02,1.11-.03,2.22-.05,3.36-.06,4.15-.13,8.29-.22,12.44-.03,1.79-.06,3.58-.08,5.36-.04,2.59-.09,5.17-.14,7.75-.01.79-.02,1.58-.02,2.39-.18,6.77-1.36,12.47-6.18,17.51-5.88,3.89-12.28,5.6-19.14,7.02-.71.15-1.42.3-2.15.45-1.48.32-2.97.63-4.45.94-2.27.47-4.53.96-6.8,1.44-1.45.31-2.9.61-4.35.92-.67.14-1.34.28-2.03.43-7.09,1.46-10.79,1-17.39-2.01-12.84-4.06-26.52.53-38.12,6.01q-2.88,1.99-4.09,3.78c-5.5,8.12-14.23,8.92-23.2,10.76-1.75.39-3.5.77-5.24,1.16-4.65,1.02-9.31,2.01-13.97,2.99-4.81,1.02-9.61,2.08-14.41,3.13-5.72,1.25-11.43,2.49-17.15,3.72-10.45,2.26-20.88,4.59-31.28,7.1-1.09.26-2.19.52-3.31.8-3.92.94-7.83,1.89-11.74,2.86-24.64,6.13-43.93,3.22-68.42-2.54l-6.69-1.56c-5.86-1.37-11.71-2.75-17.57-4.12-4.71-1.11-9.43-2.21-14.15-3.31l-23.46-5.49c-1.02-.24-2.03-.48-3.08-.72-2.01-.47-4.02-.95-6.02-1.43-5.3-1.27-10.61-2.46-15.94-3.55l-3.43-.73c-2.15-.47-4.31-.9-6.48-1.31-6.51-1.44-9.87-3.36-13.88-8.74-4.65-6.13-15.1-8.61-22.37-9.81-9.61-.74-17.7.13-26.63,3.64-3.59.55-6.87-.36-10.36-1.15-.77-.17-1.55-.34-2.35-.51-1.63-.36-3.27-.73-4.91-1.1-2.48-.56-4.96-1.1-7.45-1.63-1.6-.36-3.19-.71-4.79-1.07-.73-.16-1.47-.32-2.22-.48-6.19-1.43-13.56-3.51-17.23-9.07-.38-.55-.76-1.09-1.15-1.65-2.4-5.2-2.05-11.05-2.01-16.66v-2.46l.03-7.73c.01-1.76.01-3.51.02-5.27.01-4.28.02-8.57.05-12.86-.7-.04-1.39-.08-2.1-.13-6.23-.46-11.82-1.38-17.72-3.43l-2.32-.8c-13.11-4.68-26.56-12.22-34.86-23.64-.97-3.3-1.19-5.29-.32-8.62,1.53-2.77,2.78-4.46,5.32-6.38,3.9-1.08,6.16-1.29,10,.07,2.31,1.49,4.1,2.87,6.12,4.68,14.92,13.1,34.48,17.41,53.88,16.25,15.95-1.73,31.84-9.65,42.42-21.78,11.96-15.19,15.08-30.29,13.58-49.22-.86-4.6-2.18-8.7-4-13-.33-.85-.66-1.7-1-2.58-6.49-15.04-20.29-24.49-34.63-31.16-7.47-2.79-14.63-3.65-22.56-3.63h-2.78c-9.54.17-17.99,2.1-26.47,6.62-4.01,1.97-6.17,2.49-10.56,1.75-2.97-1.81-5.43-3.84-7-7-.38-4.99-.28-8.11,3-12,7.19-5.87,16.74-9.12,25.71-11.07.8-.17,1.61-.35,2.44-.53.61-.13,1.22-.26,1.85-.4,0-.56.01-1.12.01-1.7.07-5.85.15-11.71.25-17.57.03-2.18.06-4.36.08-6.55.04-3.14.09-6.29.14-9.43q.01-.49.02-2.94c.12-5.68.75-9.79,3.5-14.81,2.26-2.1,4.25-3.62,7-5,.73.13,1.46.26,2.21.4,3.31.51,5.54.48,8.79-.4,3.76-3.53,6.52-7.59,9.45-11.83,2.81-3.95,5.9-7.67,8.98-11.42.59-.74,1.19-1.47,1.79-2.24q.29-.34,1.71-2.09c.49-.61.99-1.22,1.5-1.85,7.81-7.82,24.98-3.25,35.19-2.38M170.24,621v36c5.27,1.32,10.56,2.64,16,4,22.69,7.91,41.21,21.29,52.14,43.2,9.4,19.92,10.63,41.8,3.6,62.65-7.74,21.42-23.6,38.07-43.81,48.27-8.53,3.9-17.8,5.93-26.93,7.88-.05,4.67-.09,9.33-.11,13.99-.01,1.59-.03,3.18-.05,4.76-.02,2.28-.03,4.56-.04,6.84l-.03,2.15c0,1.76.1,3.51.23,5.26,2.24,2.24,3.1,2.43,6.12,3.05.87.18,1.73.36,2.63.55.95.19,1.9.38,2.88.58,1,.21,2,.42,3.04.63,2.18.46,4.37.91,6.55,1.36,5.94,1.22,11.87,2.46,17.8,3.7,1.24.26,2.47.51,3.75.78,52.27,10.91,104.3,22.85,156.18,35.49l1.99.48c3.09.76,6.17,1.51,9.26,2.26,1.09.27,2.18.53,3.3.81.94.23,1.89.46,2.86.7,11.19,2.61,21.38,1.91,32.46-.91,1.11-.27,2.22-.54,3.36-.82,2.38-.57,4.76-1.16,7.14-1.75,6.22-1.54,12.46-3.02,18.69-4.51l4.02-.96c33.87-8.14,67.84-15.77,101.9-23.06.99-.21,1.97-.42,2.99-.64,6.68-1.43,13.36-2.85,20.04-4.28.9-.19,1.81-.38,2.74-.58,8.62-1.84,17.24-3.66,25.86-5.44l9.38-1.95c2.13-.44,4.26-.87,6.39-1.3,1.25-.26,2.51-.52,3.8-.79,1.09-.22,2.18-.45,3.31-.68q2.56-.72,4.56-2.72c.17-2.51.23-4.9.19-7.41,0-.73-.01-1.46-.01-2.21-.01-2.34-.03-4.67-.06-7l-.03-4.74c-.02-3.88-.05-7.76-.09-11.64-1.08-.25-2.15-.51-3.25-.78l-4.3-1.05c-.7-.16-1.41-.33-2.13-.5-16.55-4.07-30.23-12.79-42.32-24.67-.63-.61-1.26-1.22-1.9-1.85-13.94-14.76-20.76-36.25-20.29-56.27,1.33-20.42,8.45-38.64,22.19-53.88.56-.63,1.12-1.26,1.7-1.92,12.77-13.54,31.94-22.04,50.3-24.08,1.59-4.92,2.24-9.01,2.19-14.24,0-.66-.01-1.32-.01-1.99-.01-2.07-.03-4.14-.06-6.2l-.03-4.25c-.02-3.44-.05-6.88-.09-10.32-8.13.57-16.09,1.53-24.12,2.87-1.15.18-2.29.37-3.47.56-3.77.62-7.53,1.25-11.29,1.88q-.32.06-1.97.33c-60.01,10.05-120.74,20.37-178.33,40.45-12.32,3.98-23.41,1.82-35.33-2.26-10.04-3.33-20.29-6.04-30.49-8.83-.67-.18-1.34-.36-2.02-.55-46.29-12.69-93.82-21.24-141.11-29.26-1.24-.21-2.48-.42-3.76-.64-3.5-.59-7-1.18-10.5-1.75q-.5-.09-3.05-.52c-6.89-1.12-13.56-1.69-20.56-2.28"/>
  <path class="st1" d="M467.23,111.01c1.12.18,2.25.36,3.41.55,29.54,4.83,58.37,13.56,85.9,25.26.64.27,1.27.53,1.92.81,4.43,1.96,7.81,4.1,9.74,8.68.22.85.44,1.71.67,2.58.26.99.52,1.98.8,2.99.26,1.08.53,2.15.81,3.25.29,1.13.58,2.25.88,3.41.98,3.81,1.93,7.64,2.87,11.47.18.72.35,1.43.53,2.17,1.3,5.29,2.58,10.59,3.85,15.89.17.73.35,1.46.53,2.21,1.8,7.55,3.48,14.98,4.09,22.73l-5.23-.3-4.61-.27c-3.71-.22-7.41-.45-11.11-.72-51.13-3.68-105.64,5.19-149.82,32.39-2.89,1.16-4.25.69-7.23-.1q-2.35-1.09-4.78-2.44c-.91-.5-1.83-1-2.77-1.51-.97-.53-1.95-1.06-2.95-1.61-47.57-25.29-101.57-30.76-154.5-25.44-.96.1-1.92.19-2.92.29-2.36.23-4.72.47-7.08.71.63-6.8,1.82-13.28,3.36-19.92.24-1.02.47-2.05.71-3.1.49-2.15.99-4.3,1.49-6.45.75-3.25,1.49-6.51,2.23-9.76,1.35-5.94,2.76-11.86,4.21-17.77l.54-2.24c1.32-5.32,2.44-9.56,6.02-13.77,4.69-2.71,9.48-4.84,14.5-6.87,1.07-.43,2.13-.86,3.23-1.31,27.3-10.97,55.67-18.23,84.71-22.81,1-.17,1.99-.33,3.02-.5,36.66-5.84,76.46-4.78,112.98,1.5"/>
  <path class="st4" d="M247.88,886.53c1.88,1.37,3.67,2.86,5.36,4.47.82.75,1.65,1.49,2.5,2.25q1.5,1.75,1.5,3.75c.64.1,1.29.19,1.96.29,9.73,1.51,19.25,3.75,28.82,6,1.83.43,3.66.85,5.49,1.28,4.81,1.12,9.62,2.25,14.43,3.37,3.83.9,7.66,1.79,11.49,2.69l8.48,1.98,11.21,2.61c7.84,1.83,15.69,3.66,23.51,5.6,3.06.75,6.12,1.5,9.18,2.24,2.04.5,4.07,1.02,6.1,1.54,6.76,1.64,13.34,2.75,20.28,3.18.68.05,1.37.09,2.07.14,6.25.29,12.2-.5,18.29-1.86q.37-.08,2.27-.51c.8-.18,1.59-.36,2.42-.55.86-.19,1.73-.39,2.62-.59,7.27-1.66,14.51-3.4,21.75-5.16,15.49-3.74,30.98-7.37,46.56-10.67,2.31-.49,4.62-.98,6.93-1.48.76-.16,1.52-.32,2.3-.49,1.52-.32,3.04-.65,4.57-.98,4.47-.96,8.96-1.89,13.44-2.8,2.82-.58,5.62-1.19,8.43-1.8,1.93-.41,3.86-.79,5.79-1.17,6.96-1.54,11-3.13,15.21-9.02,4.66-6.16,15.47-9.54,22.84-10.63,11.52-.95,22.17-.71,31.56,6.79q6.51,6.03,8,9c3.85-1.44,7.47-3.21,11.13-5.09,6.59-3.19,15.57-2.98,22.61-1.22,8.82,3.68,14.43,9.62,18.26,18.31,3.29,10.91-.71,21.85-5.63,31.63-10.11,17.42-27.55,28.05-46.62,33.19-27.82,7.02-60.09,6.8-86.07-6.52-4.98-3.01-9.08-6.29-12.76-10.82-3.79-2.91-7.87-3.61-12.53-3.3-3.02.43-6.02.95-9.02,1.51-9.96,1.69-19.89,3.01-29.94,4l-3.59.36c-18,1.73-35.89,2.19-53.97,2.2h-3.66c-29.92-.02-59.23-2.08-88.79-6.71q-.36-.05-2.17-.33c-1.93-.3-3.85-.6-5.77-.91-4.25-.36-8.73-.64-12.24,2.05-.45.57-.9,1.13-1.37,1.72-11.39,12.26-29.62,17.97-45.87,19.93-.86.11-1.71.22-2.59.33-28.64,3.15-58.58-1.96-81.66-19.98-11.34-9.67-19.34-22.52-21.75-37.35-.01-8.03,2.27-15.98,7.79-21.93,7.83-7.28,13.93-8.64,24.53-8.43,5.97.59,10.33,2.57,15.05,6.18.54.39,1.07.78,1.63,1.18,3.4-1.13,4.11-2.08,6.31-4.81,13.24-15.45,36.71-14.26,53.33-4.66"/>
  <path class="st1" d="M455.48,30.19l5.58,1.83c3.97,1.31,7.94,2.62,11.91,3.92,6.43,2.12,12.86,4.21,19.3,6.3,21.26,6.92,42.49,13.9,63.64,21.19,9.73,3.35,19.48,6.64,29.26,9.88,17.96,5.96,35.89,12.02,53.82,18.08,2.33.79,4.66,1.57,6.99,2.36,18.78,6.34,37.54,12.73,56.25,19.25q-1,2-3.51,2.96c-1.12.33-2.24.66-3.39,1.01-.62.18-1.24.37-1.88.56-2.07.62-4.15,1.23-6.22,1.84-1.46.43-2.93.87-4.39,1.31-3.91,1.17-7.83,2.32-11.75,3.48-4.02,1.19-8.04,2.39-12.06,3.58-4.8,1.43-9.59,2.85-14.38,4.27-8.98,2.67-17.95,5.35-26.9,8.09-1.88.57-3.77,1.14-5.65,1.72-2.54.77-5.08,1.55-7.62,2.33-2.25.69-4.51,1.38-6.77,2.06-1.22.38-2.44.75-3.69,1.14q-2.79.65-4.79-.35c-.97-3.23-1.85-6.46-2.62-9.74-1.95-7.12-6.37-10.81-12.55-14.58-2.32-1.25-4.68-2.39-7.08-3.49l-2.72-1.27c-43.92-19.91-94.16-31.92-142.47-32.12-1.15,0-2.3,0-3.48-.02-3.7-.02-7.39-.03-11.08-.03h-3.82c-17.96.02-35.43.4-53.18,3.25-1.14.17-2.27.34-3.44.51-34.53,5.05-89.32,13.48-115.39,39.29-2.52,3.72-3.74,7.1-4.92,11.39-.21.71-.42,1.42-.63,2.15-.55,1.89-1.08,3.77-1.62,5.66l-1,3c-5.41-.6-10.22-1.9-15.36-3.67-.81-.27-1.61-.54-2.44-.82-2.65-.89-5.3-1.79-7.95-2.7-3.77-1.27-7.55-2.54-11.33-3.81-.97-.33-1.94-.66-2.94-.99-6.98-2.35-13.96-4.64-20.96-6.91q-.49-.16-2.95-.95c-3.77-1.22-7.55-2.45-11.33-3.66q-18.75-6.03-26.74-9.49c2.85-1.9,5.25-2.93,8.45-4.11,1.14-.41,2.27-.83,3.44-1.26,1.27-.46,2.53-.92,3.8-1.38l1.98-.72c17.44-6.35,34.96-12.45,52.49-18.54,2.9-1.01,5.8-2.02,8.71-3.03,60.98-21.24,122.1-42.18,183.76-61.39.87-.28,1.75-.55,2.65-.84,26.15-8.17,43.32-5.04,68.97,3.46"/>
  <path class="st27" d="M568.23,376.01c1.06.36,2.12.72,3.22,1.1,11.89,4.52,21.77,12.04,30.78,20.9q.35.34,2.12,2.08c15,15.76,21.64,37.2,21.13,58.64-.97,21.68-11.73,41.61-27.15,56.49-18.91,16.07-41.39,23.32-66.1,21.79-22.31-2.8-42.74-12.47-57.19-29.88-10.48-13.64-17.8-29.78-18.81-47.12l-.12-2.03c-.68-22.51,7.62-43.4,22.95-59.7.71-.75,1.43-1.5,2.17-2.27.55-.63,1.1-1.25,1.67-1.9,20.7-22.64,57.37-27.7,85.33-18.1M317.48,388.82c1.61,1.37,3.19,2.77,4.75,4.19.92.82,1.83,1.64,2.77,2.49,15.29,14.45,24.14,34.32,25.47,55.28.58,20.99-5.25,40.28-19.24,56.23-.54.67-1.08,1.34-1.64,2.03-13.39,16.24-33.63,25.67-54.36,27.97-24.41,1.46-46.56-5.09-65.56-20.82-14.91-13.33-26.01-31.63-27.66-51.89-1.04-25.95,5.22-46.69,22.2-66.61,29.22-31.41,79.58-34.68,113.27-8.87"/>
  <path class="st4" d="M605.23,887.01q6.51,6.03,8,9c3.86-1.45,7.48-3.21,11.13-5.1,6.59-3.18,15.58-2.97,22.61-1.22,8.83,3.68,14.43,9.62,18.26,18.32,3.3,10.9-.71,21.85-5.62,31.62-10.12,17.43-27.56,28.06-46.63,33.19-27.82,7.03-60.09,6.8-86.07-6.51-5.02-3.04-9.28-6.49-13.24-10.82q-1.44-1.48-4.44-3.48c-3.54-7.96-4.04-15.62-1.03-23.79,2.96-6.34,7.2-9.96,13.67-12.5,6.39-1.93,11.79-1.75,18.36-.71.17-.93.34-1.86.52-2.82,2.2-11.27,4.85-18.42,14.48-25.18,14.96-8.47,35.75-11.4,50,0"/>
  <path class="st23" d="M209.92,581.05c1.16.08,2.32.17,3.51.26,1.26.1,2.51.21,3.8.33,1.3.1,2.6.2,3.94.31,4.03.32,8.04.69,12.06,1.06,1.17.11,2.33.21,3.53.32,46.78,4.41,95.6,13.05,137.72,34.74.94.49,1.88.97,2.85,1.47,6.94,3.68,12.87,8.15,18.92,13.13,2.65,1.79,5.05,2.18,8.23,2.09,5.05-1.37,8.97-4.8,13.03-7.98,44.07-33.84,113.77-40.73,167.77-44.54,2.69-.21,5.35-.49,8.03-.78q11.64-.98,15.68,1.73c3.53,3.46,5.85,7.53,8.24,11.82.74,1.11,1.5,2.21,2.26,3.31q1.74,2.69,1.74,4.69c-.76.13-1.53.25-2.32.38q-156.57,25.73-199.44,43.31c-13.69,5.59-23.32,4.04-36.55-1.14-15.44-5.95-31.66-9.58-47.69-13.55-.83-.21-1.67-.42-2.53-.63-48.3-12.03-97.43-20.01-146.47-28.37.95-1.44,1.9-2.88,2.85-4.31.53-.8,1.06-1.61,1.6-2.43,1.89-2.75,3.98-5.19,6.24-7.63q.37-.41,2.26-2.47.34-.35,2.05-2.16c.42-.54.84-1.08,1.28-1.64,2.52-1.99,4.24-1.57,7.41-1.32"/>
  <path class="st0" d="M258.23,897.01c15.24,3.11,30.39,6.58,45.53,10.09,3.57.82,7.13,1.64,10.7,2.47,13.98,3.22,27.94,6.46,41.88,9.83,2.13.52,4.27,1.03,6.4,1.54,3.86.93,7.72,1.88,11.58,2.83,17.06,4.16,31.7,5.17,48.91,1.24.88-.2,1.75-.4,2.66-.6,6.19-1.41,12.36-2.89,18.54-4.38,22.09-5.34,44.24-10.43,66.43-15.36,2.12-.47,4.24-.95,6.36-1.42,3.95-.88,7.91-1.76,11.87-2.63,1.19-.27,2.38-.53,3.6-.81,1.09-.24,2.17-.48,3.29-.72.95-.21,1.89-.42,2.87-.64q2.38-.44,5.38-.44c-.13.71-.27,1.43-.4,2.16-.97,5.27-1.89,10.53-2.6,15.84-.65-.11-1.31-.21-1.98-.32-8.39-1.11-17.45-.74-24.52,4.51-5.73,6.45-7.94,13.23-7.5,21.81.63,2.01,1.29,4.01,2,6v4l-1.74.15c-5.86.55-11.65,1.33-17.46,2.21-58.77,8.71-118.76,8.09-177.46-.73-.72-.11-1.44-.22-2.18-.33-1.93-.29-3.86-.59-5.79-.89-3.17-.39-6.19-.49-9.37-.41.23-.76.46-1.52.69-2.31,2.33-8.35,3.61-15.06-.75-22.88-4.56-6.57-10.19-10.06-17.94-11.81-2.64-.13-5.29-.17-7.94-.12-.68,0-1.37.01-2.07.02-1.66.03-3.33.06-4.99.1l-.37-2.67c-.16-1.16-.33-2.32-.51-3.52-.16-1.15-.32-2.29-.49-3.48-.57-3.03-1.44-5.5-2.63-8.33"/>
  <path class="st22" d="M446.8,686.78q.49.01,3,.04.49.01,3,.02,2.43.17,3.43,1.17c.08,2.02.09,4.04.07,6.06l-.03,3.35c-.01.86-.02,1.71-.04,2.59l10-1q.03-.39.19-2.37c.08-1.01.16-2.02.25-3.07.08-1.01.16-2.02.25-3.06q.31-2.5,1.31-3.5c1.83-.1,3.67-.13,5.5-.12,1-.01,2-.01,3.03-.01q2.47.13,3.47,1.13c.15,4,.05,7.99,0,12h23c1.22,2.44,1.12,4,1.12,6.73v2.97c-.01,1.06-.01,2.12-.02,3.21v3.29l-.03,10.43c-.01,2.35-.01,4.7-.02,7.05-.01,5.77-.03,11.55-.05,17.32l3.44-.06q3.56.06,4.56,1.06v12q-4.45.17-27,1,10.19,5.19,13.38,6.79c4.98,2.57,8.97,4.93,12.62,9.21-1.37,1.37-2.77,2.72-4.18,4.06-.78.76-1.56,1.51-2.36,2.29q-2.46,1.65-4.84,1.4c-2.64-.76-4.65-1.71-7.01-3.11-.81-.48-1.62-.95-2.46-1.44-.83-.5-1.66-1-2.52-1.51-1.65-.98-3.31-1.95-4.96-2.93-.79-.47-1.58-.93-2.39-1.41-3.07-1.82-6.17-3.59-9.28-5.35,1.81-3.18,3.38-5.38,6-8l-31-1v2c.6.23,1.2.45,1.82.69,2.75,1.65,3.63,3.55,5.18,6.31-6.14,4.9-12.36,8.93-19.37,12.44-.68.34-1.36.68-2.05,1.03q-6.98,3.41-10.58,3.53-2.05-1.29-3.87-3.19c-.62-.61-1.23-1.22-1.87-1.85q-1.26-1.96-1.09-3.93c1.12-2.72,2.33-3.21,4.95-4.5.83-.43,1.67-.85,2.53-1.29.88-.43,1.76-.86,2.67-1.3,1.72-.86,3.45-1.73,5.17-2.6l2.33-1.14q2.18-1.2,4.34-2.85,1.84-1.35,3.84-1.35v-2h-29q0-12,1-13c2.67-.14,5.33-.04,8,0v-1.89c-.03-6.47-.04-12.94-.05-19.42-.01-2.42-.01-4.83-.02-7.25-.01-3.47-.02-6.94-.02-10.4-.01-1.09-.01-2.18-.02-3.3v-3.04c0-.88,0-1.77-.01-2.68q.12-2.02,1.12-3.02c1.57-.09,3.13-.11,4.69-.1.95.01,1.89.01,2.87.01l3.01.03c.99,0,1.99.01,3.02.01,2.47.01,4.94.03,7.41.05-.02-.77-.04-1.54-.07-2.34-.01-1-.03-2-.05-3.03-.02-1-.05-2-.07-3.03.27-3.61,1.15-4.51,4.76-4.83"/>
  <path class="st3" d="M80.23,281.01c.66.27,1.32.54,2,.81,5.94,2.35,11.83,4.52,18,6.19.28,9.86-.55,19.53-1.62,29.31-.09.81-.18,1.61-.27,2.44q-6.59,59.91-17.11,81.25c-13.65,4.55-29.71-1.9-42.03-7.78-5.98-3.01-11.04-6.67-15.97-11.22,5.85-36.82,30.96-74.96,57-101"/>
  <path class="st17" d="M294.54,424.01c.89.66,1.77,1.32,2.69,2,.82.56,1.65,1.11,2.5,1.69,8.69,8.04,12.95,19.34,13.75,30.93-.2,11.47-4.57,22.74-12.32,31.13-9.11,8.62-19.04,11.64-31.26,11.53-9.72-.74-18.78-5.32-25.61-12.24-8.41-10.03-12.03-22.09-11.06-35.04,1.67-11.47,6.75-21.15,15.81-28.5,14.37-9.87,30.63-10.48,45.5-1.5"/>
  <path class="st14" d="M552.23,422.01c11.19,7.22,17.6,17.2,20.75,30.06,1.09,12.83-1.37,23.26-8.75,33.94-.6.91-1.2,1.82-1.81,2.75-7.62,7.84-17.73,12.36-28.63,12.75-12.77-.47-22.16-5.59-30.81-14.75-8.52-10.47-9.84-22.78-8.75-35.75,2.35-12.05,9.17-20.87,19-28,11.75-7.07,26.89-7.65,39-1"/>
  <path class="st2" d="M365.67,686.82c.99-.01,1.98-.03,3-.04q2.56.23,4.56,2.23.2,2.38.13,5.12l-.06,2.76c-.02.7-.04,1.4-.07,2.12,1.29-.01,2.58-.03,3.9-.04l5.04-.03q.43,0,2.58-.02c.81,0,1.61-.01,2.45-.01.75-.01,1.5-.01,2.27-.02q1.76.12,2.76,1.12c.07,1.85.09,3.71.06,5.56,0,1.01-.01,2.02-.02,3.07-.01.78-.03,1.56-.04,2.37q-.99.16-6,1,.17.33,1,2c-.74,2.59-1.54,5.09-2.44,7.62-.24.71-.48,1.42-.73,2.14-.6,1.75-1.21,3.49-1.83,5.24.78-.01,1.57-.03,2.37-.04l3.07-.03,3.06-.03q2.5.1,3.5,1.1c.1,1.83.13,3.66.13,5.5q0,.5.01,3.03-.14,2.47-1.14,3.47c-1.49.08-2.98.1-4.47.1-.9-.01-1.8-.01-2.72-.01q-.48-.01-2.87-.03c-.95,0-1.9-.01-2.88-.01-2.35-.02-4.7-.03-7.06-.05v11c1.29-.01,2.58-.03,3.9-.04l5.04-.03q.43,0,2.58-.02c.81,0,1.61-.01,2.45-.01.75-.01,1.5-.01,2.27-.02q1.76.12,2.76,1.12c.1,1.66.13,3.33.13,5q0,.45.01,2.75-.14,2.25-1.14,3.25c-1.34.08-2.69.1-4.03.1-.81-.01-1.62-.01-2.45-.01l-2.58-.03c-.85,0-1.71-.01-2.59-.01-2.11-.02-4.23-.03-6.35-.05q.01.33.03,1.99c.05,2.96.07,5.92.1,8.88.01,1.04.03,2.07.05,3.13q0,.49.02,2.99,0,.46.03,2.76-.23,2.25-2.23,4.25-2.56.23-5.56.19c-.99-.01-1.98-.02-3-.02q-2.44-.17-3.44-1.17c-.08-1.71-.1-3.42-.1-5.13.01-1.04.01-2.07.01-3.14l.03-3.3c0-1.09.01-2.18.01-3.31.02-2.7.03-5.41.05-8.12l-3.68.03-4.76.03-2.43.03c-2.04,0-4.08-.04-6.13-.09q-1-1-1.13-3.25c0-.91,0-1.82.01-2.75-.01-.91-.01-1.82-.01-2.75q.13-2.25,1.13-3.25c2.87-.08,5.7-.09,8.56-.07.81.01,1.62.01,2.45.02,2,.01,3.99.03,5.99.05v-11l-4.12.03-5.32.03-2.72.03q-.42,0-2.58.01c-.79,0-1.59.01-2.4.01q-1.86-.11-2.86-1.11c-.1-1.83-.13-3.67-.12-5.5-.01-1-.01-2-.01-3.03q.13-2.47,1.13-3.47c3.34-.15,6.66-.04,10,0l-4-16,2-1c-1.13-.15-2.27-.29-3.44-.44q-3.56-.56-4.56-1.56c-.1-1.67-.13-3.34-.12-5-.01-.91-.01-1.82-.01-2.75q.13-2.25,1.13-3.25c1.35-.09,2.69-.11,4.04-.1.81,0,1.62.01,2.45.01.85.01,1.7.02,2.57.02.86.01,1.71.01,2.59.02,2.12.01,4.24.03,6.35.05l-.03-2.37-.03-3.07c-.01-1.01-.02-2.02-.04-3.06.18-4.57,2.52-3.66,6.54-3.69"/>
  <path class="st0" d="M434.04,462.3c5.97,4.63,8.58,10,10.38,17.21.32,1.27.64,2.54.98,3.84.73,3.22,1.33,6.41,1.83,9.66-5.43,2.18-10.55,3.69-16.31,4.63-.75.12-1.49.25-2.26.37-5.8.95-11.56,1.72-17.43,2-.97.05-1.94.11-2.94.16-14.2.39-36.17.29-49.06-6.16.42-2.01.86-4.03,1.32-6.03.5-2.19.95-4.39,1.38-6.59,2.53-11.45,7.36-17.34,17.17-23.75,18.13-10.03,38.55-7,54.94,4.66"/>
  <path class="st22" d="M332.23,689.01q1.58,1.52,2.81,3.38c.42.6.84,1.21,1.27,1.83q.92,1.79.92,4.79c-1.94.67-3.87,1.34-5.81,2l-3.27,1.12q-2.92.88-5.92.88v15h16v13h-16v12c3.06-.03,6.12-.07,9.18-.1q2.82.1,4.82,1.1c.19,5.66.37,11.32.54,16.98l.18,5.78c.1,2.76.18,5.53.26,8.29l.09,2.62c.06,2.11,0,4.22-.07,6.33q-2,2-4.38,2.2c-.91-.03-1.81-.05-2.74-.08-.92-.01-1.83-.03-2.76-.05-.7-.02-1.4-.05-2.12-.07l-2-4h-15l-1,4q-1,1-3.47,1.13-.5,0-3.03-.01c-1,.01-2,.01-3.03.01q-2.47-.13-3.47-1.13c-.11-3.01-.16-5.99-.17-9,0-.9,0-1.8-.01-2.74,0-1.91-.01-3.83-.01-5.74,0-2.94-.02-5.88-.03-8.82-.01-1.86-.01-3.71-.01-5.57-.01-.88-.01-1.77-.02-2.68q.02-6.22,2.25-8.45,3.04-.2,6.62-.12c1.19.01,2.38.03,3.61.05q.45.01,2.77.07v-12c-1.22.01-2.43.02-3.68.04-1.59,0-3.17.01-4.76.02l-2.43.03c-2.04.01-4.09-.04-6.13-.09q-1-1-1.1-3.72c.03-3.1.07-6.19.1-9.28h18v-12l-14,1q-3.22-7.73-2-12c.64-.11,1.28-.21,1.94-.32,2.96-.49,5.91-.99,8.87-1.49,1.01-.17,2.01-.33,3.05-.5,6.04-1.03,11.83-2.36,17.67-4.21,2.84-.55,4.72-.3,7.47.52"/>
  <path class="st2" d="M411.79,808.13c6.31,2.29,10.71,5.93,13.88,11.88,2.94,7.53,2.92,16.54-.07,24.06-3.57,6.76-8.29,8.9-15.37,11.94h-22v-48c6.04-3.03,17.18-1.56,23.56.12"/>
  <path class="st5" d="M333.61,806.63c4.3.44,4.91,1.17,7.62,4.38q1.47,2.44,2.8,5.13c.49.97.97,1.94,1.47,2.94.49,1.01.98,2.01,1.49,3.05.5,1.01,1.01,2.03,1.53,3.07q3.71,7.52,3.71,9.81h2c.22-.77.44-1.54.66-2.33,1.85-5.06,4.33-9.72,6.84-14.49.5-.96,1-1.93,1.52-2.93.48-.91.96-1.83,1.45-2.77l1.33-2.54q1.2-1.94,3.2-2.94,3.5-.19,7,0,2,2,2.25,3.93v2.39q0,.45.01,2.71c-.01.97-.02,1.94-.02,2.93s-.01,1.99-.01,3.01c0,2.1-.01,4.19-.02,6.29-.02,3.22-.02,6.44-.02,9.66,0,2.04-.01,4.07-.02,6.11v2.93c-.01.89-.01,1.79-.02,2.71q0,.39-.01,2.39t-1.14,3.94q-6.15.09-8,0c-1.83-1.84-1.23-4.76-1.31-7.23-.04-1.26-.09-2.52-.13-3.82l-.12-4.02c-.04-1.34-.08-2.69-.13-4.03-.1-3.3-.21-6.6-.31-9.9-.29.6-.59,1.2-.9,1.82-1.34,2.7-2.69,5.41-4.03,8.11-.47.95-.94,1.89-1.42,2.87l-1.36,2.72c-.41.83-.83,1.67-1.25,2.53q-1.04,1.95-2.04,2.95h-6q-1.81-3.3-11-20c-.06,1.93-.12,3.87-.18,5.87-.08,2.52-.17,5.04-.25,7.56l-.12,3.88c-.04,1.21-.09,2.43-.13,3.68q-.02.56-.11,3.41-.21,2.6-1.21,3.6-1.81.13-4,.12c-.72,0-1.44.01-2.18.01q-1.82-.13-2.82-1.13c-.1-1.44-.13-2.87-.14-4.31-.01-.91-.01-1.83-.02-2.77v-3.01c-.01-1.02-.01-2.03-.01-3.08-.01-2.15-.01-4.3-.01-6.45,0-3.3-.02-6.61-.04-9.91,0-2.08,0-4.17-.01-6.25,0-1-.01-1.99-.02-3.01q0-.46.01-2.78v-2.45c.46-3.74,2.1-3.97,5.62-4.36"/>
  <path class="st7" d="M418.01,475.52c4.69,3.14,8.11,6.33,11.41,10.92.67.93,1.34,1.86,2.04,2.81,1.64,2.55,2.69,4.93,3.77,7.75-17.34,2.42-33.24,3.7-50.69,1.63-1.06-.13-2.13-.25-3.23-.38-1-.13-2-.26-3.03-.39-.9-.12-1.8-.23-2.73-.35q-2.32-.51-5.32-2.51,12-16.1,19-20c.6-.33,1.19-.66,1.81-1.01,8.83-4.06,18.64-3.09,26.97,1.53"/>
  <path class="st3" d="M112.48,235.76c4.23,3.46,7.26,6.67,8.02,12.23.29,6.24-1.1,10.33-5.27,15.02-4.38,3.95-8.86,4.59-14.64,4.32-4.92-.66-7.97-2.67-11.17-6.32-3.56-4.88-3.73-9.15-3.19-15,1.79-5.17,4.56-7.87,9-11,6.1-2.92,11.41-2.4,17.25.75"/>
  <path class="st10" d="M374.23,510.01c.66.07,1.33.14,2.01.22,6.74.67,13.37.91,20.13.88,1,0,2.01-.01,3.04-.01,3.17,0,6.34-.01,9.51-.03,2.16,0,4.33-.01,6.5-.01,5.27-.01,10.54-.03,15.81-.05-4.48,9.24-13.59,14.61-22,20-.67.44-1.33.87-2.02,1.32-3.81,1.3-7.04.13-10.55-1.56-5.38-3.44-10.27-7.17-14.99-11.45q-.26-.23-1.56-1.4c-2.63-2.47-4.38-4.65-5.88-7.91"/>
  <path class="st25" d="M313.23,806.82q3,.19,5,1.19c.19,4.53.37,9.07.54,13.6l.18,4.62q.87,20.33-3.34,25.93c-.6.45-1.2.89-1.82,1.35-.59.46-1.19.93-1.81,1.4-3.99,2.5-8.19,2.58-12.75,2.1-4.11-1.58-7.31-3.46-10-7q.06-2.13,1-4,3-2,5.56-1.75,2.44.75,4.44,2.75,2.5.25,5,0c2.93-2.94,2.32-6.07,2.34-10,.02-.79.03-1.59.05-2.4.04-2.53.08-5.07.11-7.6.04-3.34.09-6.67.16-10,0-.77.01-1.54.01-2.34q.14-7.53,5.33-7.85"/>
  <path class="st15" d="M500.23,811.01q1,1,1.1,3.07c-.01.82-.03,1.64-.04,2.49-.01.83-.02,1.66-.02,2.51-.02.63-.03,1.27-.04,1.93l3.94-.06c1.35-.02,2.71-.01,4.06.06q1,1,1.12,4-.12,3-1.12,4h-8l1,18,5,1q2.31,1.06,4,2v5c-3.73,2.49-7.67,2.56-12,2-3.85-1.68-5.46-3.14-7-7q-.23-2.38-.2-4.98c.01-.94.02-1.87.02-2.84l.06-2.93c0-.98.01-1.97.02-2.98.03-2.42.06-4.85.1-7.27h-5q-1.12-5.75,0-8h5c-.06-1.28-.12-2.56-.19-3.88q-.1-2.17.19-4.12c3.22-2.15,4.28-2.29,8-2"/>
  <path class="st6" d="M478.08,822.19c1.44,1.21,2.8,2.5,4.15,3.82q-.69,1.93-2,4-2.56.81-5,1l-1-1q-7.19-.58-10,1.43c-1.97,5.05-1.45,10.42,0,15.57,5.83,1.1,8.76,1.27,14-2l4,3c-.34,3.09-.56,4.59-2.88,6.75-4.58,2.69-8.96,2.72-14.12,2.25-5.17-1.79-7.91-4.53-11-9-2.27-5.48-2.5-10.33-1-16,1.93-4.45,3.94-7.33,8.06-9.94l2.94-1.06c.62-.25,1.24-.5,1.87-.75,4.28-.51,8.32-.41,11.98,1.93"/>
  <path class="st26" d="M401.86,815.76c4.49.06,7.44,1.09,11.38,3.25,4.43,4.73,4.35,9.79,4.26,15.98-.4,4.56-1.28,6.51-4.26,10.02-4.81,2.9-9.5,3.34-15,3-1.06-3.46-1.13-6.65-1.14-10.26v-3.64c0-1.25.01-2.5.01-3.79s-.01-2.52-.01-3.82v-3.63c0-1.1,0-2.2.01-3.33.2-3.98.6-3.49,4.75-3.78"/>
  <path class="st19" d="M436.23,821.01h8c1.47,2.95,1.14,5.93,1.13,9.16,0,.71,0,1.41.01,2.14,0,1.49-.01,2.98-.01,4.47,0,2.29,0,4.58.01,6.86,0,1.45-.01,2.9-.01,4.34,0,.69.01,1.38.01,2.09q-.03,4.83-1.14,5.94-1.81.13-4,.12c-.72.01-1.44.01-2.19.01q-1.81-.13-2.81-1.13c-.1-2.35-.14-4.67-.13-7.03,0-.7,0-1.41-.01-2.13,0-1.49.01-2.99.01-4.48,0-2.28,0-4.57-.01-6.86,0-1.45.01-2.89.01-4.34,0-.69-.01-1.37-.01-2.08q.03-4.85,1.14-7.08"/>
  <path class="st24" d="M311.61,754.91c1.39.01,2.79.02,4.18.04l7.44.06v16l-7.44.06-2.34.03c-1.74,0-3.48-.04-5.22-.09q-1-1-1.13-4.13c0-1.28,0-2.55.01-3.87-.01-1.28-.01-2.56-.01-3.88q.17-4.09,4.51-4.22"/>
  <path class="st21" d="M358.23,711.01h16c-1.15,6.34-2.57,12.03-5,18h-7c-.67-2.44-1.34-4.87-2-7.31q-.1-.35-.58-2.09c-.8-2.96-1.42-5.53-1.42-8.6"/>
  <path class="st13" d="M456.23,737.01h11v14h-11v-14Z"/>
  <path class="st26" d="M456.23,712.01h11v13h-11v-13ZM480.23,712.01h10v13h-10v-13ZM480.23,737.01h9c1.38,2.76,1.1,5.05,1.06,8.12-.01,1.1-.02,2.2-.02,3.33-.02.84-.03,1.68-.04,2.55h-10v-14ZM434.23,737.01h9v14h-9v-14ZM433.23,712.01h10v13h-9l-1-13Z"/>
  <path class="st9" d="M427.23,485.01c3.28,3.1,5.93,5.97,8,10v2q-13.63,1.33-20,0c2.69-2.69,5.38-3.06,9-4l1-6h2v-2Z"/>
  <path class="st11" d="M440.17,805.82q3.06.19,5.06,2.19.25,3,0,6-2,2-4.94,2.37-3.06-.37-5.06-2.06-1-2.31-.25-5,1.78-3.28,5.19-3.5"/>
  <path class="st8" d="M381.23,481.01c1.02,3.19.96,5.42.25,8.69q-.08.39-.48,2.38c-.26.64-.51,1.28-.77,1.93l-3,1,1,2-8-1c2.12-3.71,4.49-7,7.19-10.31q.36-.44,2.17-2.68c.54-.66,1.08-1.33,1.64-2.01"/>
</svg>