<?xml version="1.0" encoding="UTF-8"?>
<svg id="Layer_1" xmlns="http://www.w3.org/2000/svg" version="1.1" viewBox="0 0 1234.57 1234.57">
  <!-- Generator: Adobe Illustrator 30.6.0, SVG Export Plug-In . SVG Version: 2.1.4 Build 109)  -->
  <defs>
    <style>
      .st0 {
        fill: #fff;
      }

      .st1 {
        fill: #e02a29;
      }
    </style>
  </defs>
  <circle class="st1" cx="617.29" cy="617.29" r="617.29"/>
  <path class="st0" d="M225.98,718.23l24.76,6.63c-4.88,11.86-11.1,23.66-18.66,35.39-7.56,11.74-15.75,21.56-24.58,29.47l-24.06-10.11c8.6-6.97,16.74-16.04,24.41-27.2s13.71-22.55,18.13-34.17ZM184.49,648.49c13.25-.46,28.65-1.04,46.2-1.74,17.55-.7,36.21-1.45,55.97-2.27,19.76-.81,39.63-1.68,59.63-2.62l-.35,18.48c-19.3.93-38.59,1.92-57.89,2.96-19.3,1.05-37.61,1.98-54.92,2.79-17.32.82-32.95,1.57-46.9,2.27l-1.74-19.88ZM185.19,494.71h164.24v18.83h-164.24v-18.83ZM196.34,598.28h120.3v17.79h-120.3v-17.79ZM206.11,528.19h123.09v55.44h-123.09v-55.44ZM255.28,627.92h24.41v59.28c0,5.81-.82,10.17-2.44,13.08-1.63,2.91-4.65,5.18-9.07,6.8-4.65,1.63-10.58,2.56-17.79,2.79-7.21.23-16.39.35-27.55.35-.47-3.02-1.46-6.22-2.96-9.59-1.51-3.37-2.96-6.45-4.36-9.24,8.37.23,15.69.35,21.97.35h12.55c2.32-.23,3.78-.7,4.36-1.4.58-.7.87-1.97.87-3.83v-58.58ZM228.08,544.23v23.71h77.76v-23.71h-77.76ZM255.28,468.56h24.76v35.57h-24.76v-35.57ZM310.02,598.28h5.23l4.53-1.39,13.95,11.51c-8.37,6.75-18.19,13.2-29.47,19.35-11.28,6.16-22.14,11.22-32.6,15.17-1.4-1.86-3.31-4.07-5.76-6.63-2.44-2.55-4.48-4.53-6.1-5.93,9.07-3.49,18.31-7.85,27.72-13.08,9.41-5.23,16.91-10.17,22.49-14.82v-4.19ZM285.26,727.3l24.41-2.09c2.32,9.3,4.24,19.42,5.76,30.34,1.51,10.92,2.38,20.11,2.62,27.55l-26.15,3.49c0-7.67-.58-17.09-1.74-28.25-1.17-11.16-2.79-21.5-4.88-31.03ZM386.39,468.56h22.67v77.41c0,14.42-.87,29-2.62,43.76-1.74,14.77-5.23,29.35-10.46,43.76-5.23,14.42-12.96,28.36-23.19,41.84-10.23,13.49-23.95,26.04-41.15,37.66-2.09-2.55-4.83-5.4-8.2-8.54-3.37-3.14-6.45-5.75-9.24-7.85,16.04-10.92,28.88-22.6,38.53-35.05,9.64-12.43,16.91-25.16,21.79-38.18,4.88-13.02,8.08-26.09,9.59-39.23,1.51-13.13,2.27-25.86,2.27-38.18v-77.41ZM341.41,589.91l13.25-17.44c10.23,6.28,20.69,13.43,31.38,21.44,10.69,8.02,20.69,16.04,29.99,24.06,9.3,8.02,16.74,15.52,22.32,22.49l-13.95,19.88c-5.35-6.97-12.61-14.65-21.79-23.02-9.19-8.37-19.12-16.74-29.81-25.11-10.7-8.37-21.16-15.81-31.38-22.32ZM348.03,521.56h108.45v22.32h-108.45v-22.32ZM356.75,726.6l24.41-4.18c4.41,9.07,8.66,19.12,12.73,30.16,4.06,11.04,6.8,20.4,8.19,28.07l-26.15,5.23c-1.39-7.67-3.83-17.09-7.32-28.25s-7.44-21.5-11.86-31.03ZM428.93,725.56l24.76-8.37c5.58,6.51,11.21,13.54,16.91,21.1,5.69,7.56,11.04,15.06,16.04,22.49,5,7.44,9.01,14.06,12.03,19.88l-26.15,9.07c-2.79-5.81-6.57-12.44-11.33-19.88-4.77-7.44-9.88-15.05-15.34-22.84-5.46-7.78-11.1-14.93-16.91-21.44ZM443.58,521.56h24.06c-.23,35.34-.23,65.27,0,89.79.23,24.53,1.39,43.19,3.49,55.97,2.09,12.79,5.69,19.18,10.81,19.18,2.55,0,4.24-4.53,5.06-13.6.81-9.07,1.33-20.11,1.57-33.13,2.32,2.56,5.06,5.29,8.2,8.2,3.14,2.91,5.87,5.06,8.19,6.45-.7,13.72-1.86,24.58-3.49,32.6-1.63,8.02-4.07,13.72-7.32,17.09-3.26,3.37-8.02,5.06-14.3,5.06-9.3,0-16.39-3.89-21.27-11.68-4.88-7.78-8.37-19.53-10.46-35.22-2.09-15.69-3.37-35.27-3.83-58.76-.47-23.48-.7-50.79-.7-81.95Z"/>
  <g>
    <path class="st0" d="M622.29,5.02c80.89.64,159.37,16.81,233.33,48.09,72.91,30.84,138.39,74.99,194.62,131.22,56.23,56.23,100.38,121.71,131.22,194.62,31.93,75.48,48.11,155.67,48.11,238.33s-16.19,162.85-48.11,238.33c-30.84,72.91-74.99,138.39-131.22,194.62-56.23,56.23-121.71,100.38-194.62,131.22-73.96,31.28-152.44,47.45-233.33,48.09V5.02Z"/>
    <path class="st1" d="M627.29,10.08c78.45,1.25,154.57,17.26,226.38,47.64,35.98,15.22,70.69,34.06,103.15,55.99,32.16,21.73,62.4,46.68,89.88,74.16,27.48,27.48,52.43,57.72,74.16,89.88,21.93,32.46,40.77,67.17,55.99,103.15,31.66,74.86,47.72,154.39,47.72,236.38s-16.05,161.52-47.72,236.38c-15.22,35.98-34.06,70.69-55.99,103.15-21.73,32.16-46.68,62.4-74.16,89.88-27.48,27.48-57.72,52.43-89.88,74.16-32.46,21.93-67.17,40.77-103.15,55.99-71.82,30.38-147.93,46.39-226.38,47.64V10.08M617.29,0v1234.57c340.92,0,617.29-276.37,617.29-617.29S958.2,0,617.29,0h0Z"/>
  </g>
  <path class="st1" d="M745.9,526.34h126.93v21.62h-126.93v-21.62ZM761.94,670.36h23.02v117.51h-23.02v-117.51ZM762.64,574.81h98.34v20.92h-98.34v-20.92ZM762.64,622.59h98.34v20.57h-98.34v-20.57ZM764.73,479.61h95.89v20.92h-95.89v-20.92ZM774.85,670.36h87.52v101.47h-87.52v-21.27h64.16v-58.58h-64.16v-21.62ZM874.23,612.82h194.58v23.36h-194.58v-23.36ZM885.04,480.31h172.61v23.02h-172.61v-23.02ZM890.27,539.24h147.5v85.43h-25.11v-62.77h-122.4v-22.67ZM899.68,662.69h147.5v124.14h-25.46v-100.43h-97.29v101.82h-24.76v-125.53ZM911.19,748.47h124.84v23.71h-124.84v-23.71ZM940.83,489.03l25.46,2.44c-1.86,14.18-4.18,29.47-6.97,45.86-2.79,16.39-5.58,32.26-8.37,47.6-2.79,15.34-5.47,28.48-8.02,39.41h-25.46c2.09-8.37,4.18-18.13,6.28-29.29,2.09-11.16,4.18-22.89,6.28-35.22,2.09-12.32,4.06-24.52,5.93-36.61,1.86-12.08,3.49-23.48,4.88-34.17Z"/>
</svg>