<?xml version="1.0" encoding="UTF-8"?>
<svg id="Layer_1" xmlns="http://www.w3.org/2000/svg" version="1.1" viewBox="0 0 757.94 556.35">
  <!-- Generator: Adobe Illustrator 30.6.0, SVG Export Plug-In . SVG Version: 2.1.4 Build 109)  -->
  <defs>
    <style>
      .st0 {
        fill: #6cc06c;
      }

      .st1 {
        fill: #5aa9e6;
      }

      .st2 {
        fill: #fdfefd;
      }

      .st3 {
        fill: #fcfdfc;
      }

      .st4 {
        fill: #f7d154;
      }
    </style>
  </defs>
  <path class="st0" d="M557.82,56.37l6.09,2.17c-.99,164.5-1.98,329.03-2.97,493.59l-6.13,3.72c-7.48-.24-14.5-1.49-21.86-4l-127.22-43.41c-15.28-5.21-30.05-7.21-45.77-1.82l-133.77,45.94c-7.62,2.62-14.64,3.41-22.43,3.74l-6.09-2.16c.77-164.67,1.54-329.37,2.31-494.1l6.12-3.73c6.07-.54,11.85-1.43,17.73-3.51L365.63,2.57c11.65-4.13,23.68-2.69,35.15,1.37l137.41,48.63c4.75,1.68,14.08,5.73,19.63,3.81Z"/>
  <path class="st1" d="M554.82,555.86l3-499.48L715.39,1.78c10.76-3.73,22.1-.6,30.06,6.24,6.67,5.73,12.35,14.72,12.36,26.83l.13,411.21c0,26.46-14.39,45.87-38.09,54.49l-144.82,52.73c-6.85,2.49-13.08,2.8-20.21,2.57Z"/>
  <path class="st4" d="M206.12,56.32l-2.34,500c-7.84.33-14.01-1.87-21.35-4.51l-150.44-54.13C12,490.49,0,471.12,0,449.19L.05,34.67C.05,13.88,20.12-5.43,39.87,1.4l152.02,52.52c4.82,1.66,9.01,2.86,14.22,2.4Z"/>
  <path class="st2" d="M335.16,398.88c-11.15-2.23-13.69-25.65-3.86-29.76l31.96-3,.8-37.74-89.18-1.42c-8.54-.14-9.48-26.08-1.4-29.27l89.97-3.28c1.13-4.95,1.37-11.39,3.13-14.65,2.26-4.19,9.59-3.5,13.59-6.32l17.92-12.61-79.88-4.16c-8.1-.42-6.58-26.05.94-28.39,39.87-1.19,80.15-2.45,120.54.39,11.12.78,12.61,23.97,5.45,29.83l-43.7,35.75,85.31,2.8c8.59.28,8.84,25.76,1.44,29.14l-85.23,2.24-1.01,47.93c-.24,11.5-7.95,22.76-20.15,23.3-14.9.66-29.75,2.6-46.66-.78Z"/>
  <path class="st3" d="M457.65,208.01l-153.2-.51c-1.02,9.78,3.04,21.04-2.72,30.8-4.13,7-27.06,7.81-29.96-.84-5.61-16.73-2.47-35.73-1.31-52.37.58-8.37,10.71-9.83,16.93-9.84l73.26-.19c-.69-8.24-2.57-19.19,3.99-24.24,8.05-6.18,26.52-6.44,33.44,1.72,3.81,5.61.33,15.51,2.65,22.72l76.16.08c6.81,0,14.88,4.15,14.58,12.19-.6,16.09,3.43,33.81-2,49.36-3.01,8.64-25.2,8.1-29.22,1.28-4.86-8.23-2.96-17.11-2.6-30.17Z"/>
</svg>