<?xml version="1.0" encoding="UTF-8"?>
<svg id="Layer_1" xmlns="http://www.w3.org/2000/svg" version="1.1" viewBox="0 0 456.26 524.9">
  <!-- Generator: Adobe Illustrator 30.6.0, SVG Export Plug-In . SVG Version: 2.1.4 Build 109)  -->
  <defs>
    <style>
      .st0 {
        fill: #7b3fe4;
      }
    </style>
  </defs>
  <path class="st0" d="M455.2,152.39c-.07-14.44-8.89-30.16-21.32-37.56L248.27,4.33c-10.71-6.38-31.43-5.34-41.63.73L33.59,108.08C13.31,120.15-.04,136.43,0,161.51l.31,202.32c.04,25.4,14.56,41.61,35.08,53.85l171.22,102.1c12.41,7.4,32.16,6.6,45.14-1.15l170.42-101.62c22.24-13.26,34.22-30.93,34.09-57.73l-1.06-206.88ZM201.59,385.11c-7.13,7.89-13.36,12.43-22.98,13.17-9.87.76-18.81-3.54-25.89-11.48l-76.04-85.21c-10.96-12.28-5.79-30.3,3.81-38.67,11.4-9.94,29.21-10.52,39.59.59l56.77,60.8,165.21-183.6c10.47-11.63,29.63-6.19,38.38,1.9,10.92,10.09,14.97,28.09,3.97,40.26l-182.82,202.24ZM367.1,347.71l-11.89,34.61-11.71-34.49-32.74-11.44,32.67-9.86,11.6-34.94,11.61,34.91,31.12,10.08-30.66,11.13Z"/>
</svg>